<svg width="178" height="54" viewBox="0 0 178 54" fill="none" xmlns="http://www.w3.org/2000/svg">
<path d="M21.691 9.5C21.691 10.512 21.493 11.469 21.097 12.371C20.349 14.109 18.963 15.297 16.939 15.935C16.345 16.133 15.795 16.232 15.289 16.232C13.727 16.232 12.33 15.825 11.098 15.011V14.681C12.748 14.725 14.079 14.186 15.091 13.064C15.971 12.096 16.411 10.831 16.411 9.269C16.411 7.685 16.026 6.464 15.256 5.606C14.508 4.726 13.485 4.286 12.187 4.286H9.976V23.591C9.976 24.163 10.185 24.658 10.603 25.076C11.021 25.472 11.516 25.67 12.088 25.67H12.517V26H2.485V25.67H2.914C3.486 25.67 3.97 25.472 4.366 25.076C4.784 24.658 5.004 24.163 5.026 23.591V5.144C5.026 4.594 4.817 4.143 4.399 3.791C3.981 3.417 3.486 3.23 2.914 3.23H2.485V2.9H13.507C16.191 2.9 18.215 3.472 19.579 4.616C20.987 5.826 21.691 7.454 21.691 9.5ZM43.4805 25.67H43.7445V26H34.0425V25.67H34.3065C34.7465 25.67 35.0655 25.538 35.2635 25.274C35.4615 25.01 35.5605 24.768 35.5605 24.548C35.5605 24.328 35.5165 24.097 35.4285 23.855L34.1415 20.819H27.1455L25.8255 23.888C25.7375 24.108 25.6935 24.339 25.6935 24.581C25.6935 24.801 25.7925 25.043 25.9905 25.307C26.2105 25.549 26.5405 25.67 26.9805 25.67H27.2445V26H20.6445V25.67H20.9085C21.3705 25.67 21.8325 25.527 22.2945 25.241C22.7565 24.955 23.1305 24.526 23.4165 23.954L30.2475 9.302C31.2155 7.124 31.7215 5.782 31.7655 5.276H32.0625L40.9065 23.822C41.1925 24.46 41.5665 24.933 42.0285 25.241C42.5125 25.527 42.9965 25.67 43.4805 25.67ZM27.7065 19.532H33.5805L30.6765 12.635L27.7065 19.532ZM46.2946 23.294C46.2946 21.864 46.6136 20.643 47.2516 19.631H47.5156C47.4936 19.785 47.4826 19.928 47.4826 20.06C47.4826 21.402 47.9556 22.579 48.9016 23.591C49.8696 24.603 51.2116 25.109 52.9276 25.109C54.1596 25.109 55.1056 24.823 55.7656 24.251C56.4476 23.679 56.7886 23.041 56.7886 22.337C56.7886 21.633 56.5906 21.072 56.1946 20.654C55.8206 20.214 55.1936 19.708 54.3136 19.136L49.6276 16.166C47.6476 14.934 46.6576 13.35 46.6576 11.414C46.6576 11.216 46.6686 11.007 46.6906 10.787C46.8226 9.225 47.4276 8.004 48.5056 7.124C49.5836 6.222 50.8486 5.771 52.3006 5.771C53.7746 5.771 55.3256 5.87 56.9536 6.068H58.7356L58.2736 10.424H57.9766C57.9766 9.39 57.6136 8.576 56.8876 7.982C56.1836 7.388 55.2376 7.091 54.0496 7.091C52.8836 7.091 51.9596 7.344 51.2776 7.85C50.5956 8.334 50.2546 8.983 50.2546 9.797C50.2546 10.457 50.5846 11.029 51.2446 11.513C51.5086 11.711 51.8936 11.964 52.3996 12.272L57.6466 15.506C59.4506 16.606 60.3526 18.124 60.3526 20.06C60.3526 22.106 59.6266 23.679 58.1746 24.779C56.7446 25.879 54.8856 26.429 52.5976 26.429C51.1896 26.429 49.9466 26.264 48.8686 25.934C47.7906 25.604 46.9986 25.186 46.4926 24.68C46.3606 24.284 46.2946 23.822 46.2946 23.294ZM82.098 10.886V10.589C82.098 9.643 81.834 8.895 81.306 8.345C80.778 7.795 80.041 7.509 79.095 7.487H75.267V23.954C75.289 24.438 75.476 24.845 75.828 25.175C76.18 25.505 76.598 25.67 77.082 25.67H77.445V26H68.337V25.67H68.667C69.173 25.67 69.602 25.505 69.954 25.175C70.306 24.845 70.482 24.427 70.482 23.921V7.487H66.687C65.719 7.509 64.971 7.795 64.443 8.345C63.915 8.895 63.651 9.643 63.651 10.589V10.886H63.321V5.672C63.629 5.782 64.135 5.892 64.839 6.002C65.565 6.112 66.214 6.167 66.786 6.167H78.963C79.931 6.167 80.723 6.101 81.339 5.969C81.977 5.815 82.34 5.716 82.428 5.672V10.886H82.098ZM104.376 25.67H104.64V26H94.9379V25.67H95.2019C95.6419 25.67 95.9609 25.538 96.1589 25.274C96.3569 25.01 96.4559 24.768 96.4559 24.548C96.4559 24.328 96.4119 24.097 96.3239 23.855L95.0369 20.819H88.0409L86.7209 23.888C86.6329 24.108 86.5889 24.339 86.5889 24.581C86.5889 24.801 86.6879 25.043 86.8859 25.307C87.1059 25.549 87.4359 25.67 87.8759 25.67H88.1399V26H81.5399V25.67H81.8039C82.2659 25.67 82.7279 25.527 83.1899 25.241C83.6519 24.955 84.0259 24.526 84.3119 23.954L91.1429 9.302C92.1109 7.124 92.6169 5.782 92.6609 5.276H92.9579L101.802 23.822C102.088 24.46 102.462 24.933 102.924 25.241C103.408 25.527 103.892 25.67 104.376 25.67ZM88.6019 19.532H94.4759L91.5719 12.635L88.6019 19.532ZM117.099 26H106.671V25.67H107.1C107.892 25.67 108.497 25.329 108.915 24.647C109.091 24.339 109.19 23.998 109.212 23.624V5.276C109.19 4.704 108.97 4.22 108.552 3.824C108.156 3.428 107.672 3.23 107.1 3.23H106.671V2.9H116.241C118.793 2.9 120.817 3.362 122.313 4.286C123.831 5.21 124.601 6.629 124.623 8.543C124.601 9.511 124.392 10.358 123.996 11.084C123.27 12.448 122.126 13.229 120.564 13.427C122.258 13.581 123.655 14.219 124.755 15.341C125.855 16.441 126.405 17.849 126.405 19.565C126.405 21.633 125.569 23.228 123.897 24.35C122.247 25.45 119.981 26 117.099 26ZM119.343 8.972C119.321 5.87 117.913 4.319 115.119 4.319H114.162V24.482H115.68C115.702 24.482 115.724 24.482 115.746 24.482C117.264 24.482 118.474 24.042 119.376 23.162C120.278 22.282 120.729 20.94 120.729 19.136C120.729 17.332 120.223 15.99 119.211 15.11C118.199 14.23 116.89 13.79 115.284 13.79V13.493C116.428 13.493 117.385 13.13 118.155 12.404C118.925 11.656 119.321 10.512 119.343 8.972ZM150.956 25.67H151.22V26H141.518V25.67H141.782C142.222 25.67 142.541 25.538 142.739 25.274C142.937 25.01 143.036 24.768 143.036 24.548C143.036 24.328 142.992 24.097 142.904 23.855L141.617 20.819H134.621L133.301 23.888C133.213 24.108 133.169 24.339 133.169 24.581C133.169 24.801 133.268 25.043 133.466 25.307C133.686 25.549 134.016 25.67 134.456 25.67H134.72V26H128.12V25.67H128.384C128.846 25.67 129.308 25.527 129.77 25.241C130.232 24.955 130.606 24.526 130.892 23.954L137.723 9.302C138.691 7.124 139.197 5.782 139.241 5.276H139.538L148.382 23.822C148.668 24.46 149.042 24.933 149.504 25.241C149.988 25.527 150.472 25.67 150.956 25.67ZM135.182 19.532H141.056L138.152 12.635L135.182 19.532ZM161.204 7.553H160.148V23.921C160.148 24.449 160.324 24.878 160.676 25.208C161.05 25.516 161.468 25.67 161.93 25.67H162.293V26H153.218V25.67H153.614C154.098 25.67 154.505 25.505 154.835 25.175C155.187 24.845 155.363 24.438 155.363 23.954V8.246C155.363 7.762 155.187 7.355 154.835 7.025C154.505 6.695 154.109 6.53 153.647 6.53H153.218V6.2H163.349C165.329 6.2 166.99 6.585 168.332 7.355C169.828 8.213 170.576 9.632 170.576 11.612C170.576 12.888 170.191 14.043 169.421 15.077C168.651 16.089 167.507 16.705 165.989 16.925C166.583 17.123 167.166 17.497 167.738 18.047C168.332 18.597 168.805 19.158 169.157 19.73C169.861 20.984 170.598 22.139 171.368 23.195C172.138 24.229 172.754 24.9 173.216 25.208C173.7 25.516 174.283 25.67 174.965 25.67V26H172.193C170.367 26 168.959 25.78 167.969 25.34C167.001 24.9 166.132 24.064 165.362 22.832C164.174 20.94 163.437 19.444 163.151 18.344C162.887 17.684 162.568 17.189 162.194 16.859C161.842 16.529 161.501 16.342 161.171 16.298V16.034H161.996C163.866 16.012 165.01 14.912 165.428 12.734C165.516 12.404 165.56 12.118 165.56 11.876C165.56 11.634 165.549 11.304 165.527 10.886C165.505 10.446 165.362 9.962 165.098 9.434C164.856 8.884 164.537 8.488 164.141 8.246C163.459 7.828 162.755 7.608 162.029 7.586C161.787 7.564 161.512 7.553 161.204 7.553Z" fill="#202020"/>
<path d="M6.51 49.25H2.79L2.02 51H0.99L4.16 44H5.15L8.33 51H7.28L6.51 49.25ZM6.16 48.45L4.65 45.02L3.14 48.45H6.16ZM12.5642 45.65C13.2376 45.65 13.7709 45.8467 14.1642 46.24C14.5642 46.6267 14.7642 47.1967 14.7642 47.95V51H13.8042V48.06C13.8042 47.5467 13.6809 47.16 13.4342 46.9C13.1876 46.64 12.8342 46.51 12.3742 46.51C11.8542 46.51 11.4442 46.6633 11.1442 46.97C10.8442 47.27 10.6942 47.7033 10.6942 48.27V51H9.73422V45.7H10.6542V46.5C10.8476 46.2267 11.1076 46.0167 11.4342 45.87C11.7676 45.7233 12.1442 45.65 12.5642 45.65ZM20.2264 45.7H21.1864V51H20.2264V45.7ZM20.7064 44.68C20.5197 44.68 20.3631 44.62 20.2364 44.5C20.1164 44.38 20.0564 44.2333 20.0564 44.06C20.0564 43.8867 20.1164 43.74 20.2364 43.62C20.3631 43.4933 20.5197 43.43 20.7064 43.43C20.8931 43.43 21.0464 43.49 21.1664 43.61C21.2931 43.7233 21.3564 43.8667 21.3564 44.04C21.3564 44.22 21.2931 44.3733 21.1664 44.5C21.0464 44.62 20.8931 44.68 20.7064 44.68ZM26.4994 50.69C26.3594 50.81 26.186 50.9033 25.9794 50.97C25.7727 51.03 25.5594 51.06 25.3394 51.06C24.806 51.06 24.3927 50.9167 24.0994 50.63C23.806 50.3433 23.6594 49.9333 23.6594 49.4V46.49H22.7594V45.7H23.6594V44.54H24.6194V45.7H26.1394V46.49H24.6194V49.36C24.6194 49.6467 24.6894 49.8667 24.8294 50.02C24.976 50.1733 25.1827 50.25 25.4494 50.25C25.7427 50.25 25.9927 50.1667 26.1994 50L26.4994 50.69ZM30.09 45.65C30.8233 45.65 31.3833 45.83 31.77 46.19C32.1633 46.55 32.36 47.0867 32.36 47.8V51H31.45V50.3C31.29 50.5467 31.06 50.7367 30.76 50.87C30.4667 50.9967 30.1167 51.06 29.71 51.06C29.1167 51.06 28.64 50.9167 28.28 50.63C27.9267 50.3433 27.75 49.9667 27.75 49.5C27.75 49.0333 27.92 48.66 28.26 48.38C28.6 48.0933 29.14 47.95 29.88 47.95H31.4V47.76C31.4 47.3467 31.28 47.03 31.04 46.81C30.8 46.59 30.4467 46.48 29.98 46.48C29.6667 46.48 29.36 46.5333 29.06 46.64C28.76 46.74 28.5067 46.8767 28.3 47.05L27.9 46.33C28.1733 46.11 28.5 45.9433 28.88 45.83C29.26 45.71 29.6633 45.65 30.09 45.65ZM29.87 50.32C30.2367 50.32 30.5533 50.24 30.82 50.08C31.0867 49.9133 31.28 49.68 31.4 49.38V48.64H29.92C29.1067 48.64 28.7 48.9133 28.7 49.46C28.7 49.7267 28.8033 49.9367 29.01 50.09C29.2167 50.2433 29.5033 50.32 29.87 50.32ZM34.6366 43.58H35.5966V51H34.6366V43.58ZM37.9295 45.7H38.8895V51H37.9295V45.7ZM38.4095 44.68C38.2229 44.68 38.0662 44.62 37.9395 44.5C37.8195 44.38 37.7595 44.2333 37.7595 44.06C37.7595 43.8867 37.8195 43.74 37.9395 43.62C38.0662 43.4933 38.2229 43.43 38.4095 43.43C38.5962 43.43 38.7495 43.49 38.8695 43.61C38.9962 43.7233 39.0595 43.8667 39.0595 44.04C39.0595 44.22 38.9962 44.3733 38.8695 44.5C38.7495 44.62 38.5962 44.68 38.4095 44.68ZM43.1525 45.65C43.8858 45.65 44.4458 45.83 44.8325 46.19C45.2258 46.55 45.4225 47.0867 45.4225 47.8V51H44.5125V50.3C44.3525 50.5467 44.1225 50.7367 43.8225 50.87C43.5292 50.9967 43.1792 51.06 42.7725 51.06C42.1792 51.06 41.7025 50.9167 41.3425 50.63C40.9892 50.3433 40.8125 49.9667 40.8125 49.5C40.8125 49.0333 40.9825 48.66 41.3225 48.38C41.6625 48.0933 42.2025 47.95 42.9425 47.95H44.4625V47.76C44.4625 47.3467 44.3425 47.03 44.1025 46.81C43.8625 46.59 43.5092 46.48 43.0425 46.48C42.7292 46.48 42.4225 46.5333 42.1225 46.64C41.8225 46.74 41.5692 46.8767 41.3625 47.05L40.9625 46.33C41.2358 46.11 41.5625 45.9433 41.9425 45.83C42.3225 45.71 42.7258 45.65 43.1525 45.65ZM42.9325 50.32C43.2992 50.32 43.6158 50.24 43.8825 50.08C44.1492 49.9133 44.3425 49.68 44.4625 49.38V48.64H42.9825C42.1692 48.64 41.7625 48.9133 41.7625 49.46C41.7625 49.7267 41.8658 49.9367 42.0725 50.09C42.2792 50.2433 42.5658 50.32 42.9325 50.32ZM50.5291 45.65C51.2024 45.65 51.7357 45.8467 52.1291 46.24C52.5291 46.6267 52.7291 47.1967 52.7291 47.95V51H51.7691V48.06C51.7691 47.5467 51.6457 47.16 51.3991 46.9C51.1524 46.64 50.7991 46.51 50.3391 46.51C49.8191 46.51 49.4091 46.6633 49.1091 46.97C48.8091 47.27 48.6591 47.7033 48.6591 48.27V51H47.6991V45.7H48.6191V46.5C48.8124 46.2267 49.0724 46.0167 49.3991 45.87C49.7324 45.7233 50.1091 45.65 50.5291 45.65ZM59.1113 46.59C59.2779 46.2833 59.5246 46.05 59.8512 45.89C60.1779 45.73 60.5746 45.65 61.0413 45.65V46.58C60.9879 46.5733 60.9146 46.57 60.8213 46.57C60.3013 46.57 59.8913 46.7267 59.5913 47.04C59.2979 47.3467 59.1513 47.7867 59.1513 48.36V51H58.1913V45.7H59.1113V46.59ZM67.4656 48.38C67.4656 48.4533 67.459 48.55 67.4456 48.67H63.1456C63.2056 49.1367 63.409 49.5133 63.7556 49.8C64.109 50.08 64.5456 50.22 65.0656 50.22C65.699 50.22 66.209 50.0067 66.5956 49.58L67.1256 50.2C66.8856 50.48 66.5856 50.6933 66.2256 50.84C65.8723 50.9867 65.4756 51.06 65.0356 51.06C64.4756 51.06 63.979 50.9467 63.5456 50.72C63.1123 50.4867 62.7756 50.1633 62.5356 49.75C62.3023 49.3367 62.1856 48.87 62.1856 48.35C62.1856 47.8367 62.299 47.3733 62.5256 46.96C62.759 46.5467 63.0756 46.2267 63.4756 46C63.8823 45.7667 64.339 45.65 64.8456 45.65C65.3523 45.65 65.8023 45.7667 66.1956 46C66.5956 46.2267 66.9056 46.5467 67.1256 46.96C67.3523 47.3733 67.4656 47.8467 67.4656 48.38ZM64.8456 46.46C64.3856 46.46 63.999 46.6 63.6856 46.88C63.379 47.16 63.199 47.5267 63.1456 47.98H66.5456C66.4923 47.5333 66.309 47.17 65.9956 46.89C65.689 46.6033 65.3056 46.46 64.8456 46.46ZM70.8187 51.06C70.3853 51.06 69.9687 51.0033 69.5687 50.89C69.1687 50.77 68.8553 50.62 68.6287 50.44L69.0287 49.68C69.262 49.8467 69.5453 49.98 69.8787 50.08C70.212 50.18 70.5487 50.23 70.8887 50.23C71.7287 50.23 72.1487 49.99 72.1487 49.51C72.1487 49.35 72.092 49.2233 71.9787 49.13C71.8653 49.0367 71.722 48.97 71.5487 48.93C71.382 48.8833 71.142 48.8333 70.8287 48.78C70.402 48.7133 70.052 48.6367 69.7787 48.55C69.512 48.4633 69.282 48.3167 69.0887 48.11C68.8953 47.9033 68.7987 47.6133 68.7987 47.24C68.7987 46.76 68.9987 46.3767 69.3987 46.09C69.7987 45.7967 70.3353 45.65 71.0087 45.65C71.362 45.65 71.7153 45.6933 72.0687 45.78C72.422 45.8667 72.712 45.9833 72.9387 46.13L72.5287 46.89C72.0953 46.61 71.5853 46.47 70.9987 46.47C70.592 46.47 70.282 46.5367 70.0687 46.67C69.8553 46.8033 69.7487 46.98 69.7487 47.2C69.7487 47.3733 69.8087 47.51 69.9287 47.61C70.0487 47.71 70.1953 47.7833 70.3687 47.83C70.5487 47.8767 70.7987 47.93 71.1187 47.99C71.5453 48.0633 71.8887 48.1433 72.1487 48.23C72.4153 48.31 72.642 48.45 72.8287 48.65C73.0153 48.85 73.1087 49.13 73.1087 49.49C73.1087 49.97 72.902 50.3533 72.4887 50.64C72.082 50.92 71.5253 51.06 70.8187 51.06ZM77.7884 50.69C77.6484 50.81 77.4751 50.9033 77.2684 50.97C77.0618 51.03 76.8484 51.06 76.6284 51.06C76.0951 51.06 75.6818 50.9167 75.3884 50.63C75.0951 50.3433 74.9484 49.9333 74.9484 49.4V46.49H74.0484V45.7H74.9484V44.54H75.9084V45.7H77.4284V46.49H75.9084V49.36C75.9084 49.6467 75.9784 49.8667 76.1184 50.02C76.2651 50.1733 76.4718 50.25 76.7384 50.25C77.0318 50.25 77.2818 50.1667 77.4884 50L77.7884 50.69ZM81.3791 45.65C82.1124 45.65 82.6724 45.83 83.0591 46.19C83.4524 46.55 83.6491 47.0867 83.6491 47.8V51H82.7391V50.3C82.5791 50.5467 82.3491 50.7367 82.0491 50.87C81.7557 50.9967 81.4057 51.06 80.9991 51.06C80.4057 51.06 79.9291 50.9167 79.5691 50.63C79.2157 50.3433 79.0391 49.9667 79.0391 49.5C79.0391 49.0333 79.2091 48.66 79.5491 48.38C79.8891 48.0933 80.4291 47.95 81.1691 47.95H82.6891V47.76C82.6891 47.3467 82.5691 47.03 82.3291 46.81C82.0891 46.59 81.7357 46.48 81.2691 46.48C80.9557 46.48 80.6491 46.5333 80.3491 46.64C80.0491 46.74 79.7957 46.8767 79.5891 47.05L79.1891 46.33C79.4624 46.11 79.7891 45.9433 80.1691 45.83C80.5491 45.71 80.9524 45.65 81.3791 45.65ZM81.1591 50.32C81.5257 50.32 81.8424 50.24 82.1091 50.08C82.3757 49.9133 82.5691 49.68 82.6891 49.38V48.64H81.2091C80.3957 48.64 79.9891 48.9133 79.9891 49.46C79.9891 49.7267 80.0924 49.9367 80.2991 50.09C80.5057 50.2433 80.7924 50.32 81.1591 50.32ZM90.8656 45.7V51H89.9556V50.2C89.7623 50.4733 89.5056 50.6867 89.1856 50.84C88.8723 50.9867 88.529 51.06 88.1556 51.06C87.449 51.06 86.8923 50.8667 86.4856 50.48C86.079 50.0867 85.8756 49.51 85.8756 48.75V45.7H86.8356V48.64C86.8356 49.1533 86.959 49.5433 87.2056 49.81C87.4523 50.07 87.8056 50.2 88.2656 50.2C88.7723 50.2 89.1723 50.0467 89.4656 49.74C89.759 49.4333 89.9056 49 89.9056 48.44V45.7H90.8656ZM94.1132 46.59C94.2799 46.2833 94.5265 46.05 94.8532 45.89C95.1799 45.73 95.5765 45.65 96.0432 45.65V46.58C95.9899 46.5733 95.9165 46.57 95.8232 46.57C95.3032 46.57 94.8932 46.7267 94.5932 47.04C94.2999 47.3467 94.1532 47.7867 94.1532 48.36V51H93.1932V45.7H94.1132V46.59ZM99.6466 45.65C100.38 45.65 100.94 45.83 101.327 46.19C101.72 46.55 101.917 47.0867 101.917 47.8V51H101.007V50.3C100.847 50.5467 100.617 50.7367 100.317 50.87C100.023 50.9967 99.6733 51.06 99.2666 51.06C98.6733 51.06 98.1966 50.9167 97.8366 50.63C97.4833 50.3433 97.3066 49.9667 97.3066 49.5C97.3066 49.0333 97.4766 48.66 97.8166 48.38C98.1566 48.0933 98.6966 47.95 99.4366 47.95H100.957V47.76C100.957 47.3467 100.837 47.03 100.597 46.81C100.357 46.59 100.003 46.48 99.5366 46.48C99.2233 46.48 98.9166 46.5333 98.6166 46.64C98.3166 46.74 98.0633 46.8767 97.8566 47.05L97.4566 46.33C97.73 46.11 98.0566 45.9433 98.4366 45.83C98.8166 45.71 99.22 45.65 99.6466 45.65ZM99.4266 50.32C99.7933 50.32 100.11 50.24 100.377 50.08C100.643 49.9133 100.837 49.68 100.957 49.38V48.64H99.4766C98.6633 48.64 98.2566 48.9133 98.2566 49.46C98.2566 49.7267 98.36 49.9367 98.5666 50.09C98.7733 50.2433 99.06 50.32 99.4266 50.32ZM107.023 45.65C107.697 45.65 108.23 45.8467 108.623 46.24C109.023 46.6267 109.223 47.1967 109.223 47.95V51H108.263V48.06C108.263 47.5467 108.14 47.16 107.893 46.9C107.647 46.64 107.293 46.51 106.833 46.51C106.313 46.51 105.903 46.6633 105.603 46.97C105.303 47.27 105.153 47.7033 105.153 48.27V51H104.193V45.7H105.113V46.5C105.307 46.2267 105.567 46.0167 105.893 45.87C106.227 45.7233 106.603 45.65 107.023 45.65ZM114.48 50.69C114.34 50.81 114.167 50.9033 113.96 50.97C113.753 51.03 113.54 51.06 113.32 51.06C112.787 51.06 112.373 50.9167 112.08 50.63C111.787 50.3433 111.64 49.9333 111.64 49.4V46.49H110.74V45.7H111.64V44.54H112.6V45.7H114.12V46.49H112.6V49.36C112.6 49.6467 112.67 49.8667 112.81 50.02C112.957 50.1733 113.163 50.25 113.43 50.25C113.723 50.25 113.973 50.1667 114.18 50L114.48 50.69ZM120.846 51.06C120.413 51.06 119.996 51.0033 119.596 50.89C119.196 50.77 118.883 50.62 118.656 50.44L119.056 49.68C119.289 49.8467 119.573 49.98 119.906 50.08C120.239 50.18 120.576 50.23 120.916 50.23C121.756 50.23 122.176 49.99 122.176 49.51C122.176 49.35 122.119 49.2233 122.006 49.13C121.893 49.0367 121.749 48.97 121.576 48.93C121.409 48.8833 121.169 48.8333 120.856 48.78C120.429 48.7133 120.079 48.6367 119.806 48.55C119.539 48.4633 119.309 48.3167 119.116 48.11C118.923 47.9033 118.826 47.6133 118.826 47.24C118.826 46.76 119.026 46.3767 119.426 46.09C119.826 45.7967 120.363 45.65 121.036 45.65C121.389 45.65 121.743 45.6933 122.096 45.78C122.449 45.8667 122.739 45.9833 122.966 46.13L122.556 46.89C122.123 46.61 121.613 46.47 121.026 46.47C120.619 46.47 120.309 46.5367 120.096 46.67C119.883 46.8033 119.776 46.98 119.776 47.2C119.776 47.3733 119.836 47.51 119.956 47.61C120.076 47.71 120.223 47.7833 120.396 47.83C120.576 47.8767 120.826 47.93 121.146 47.99C121.573 48.0633 121.916 48.1433 122.176 48.23C122.443 48.31 122.669 48.45 122.856 48.65C123.043 48.85 123.136 49.13 123.136 49.49C123.136 49.97 122.929 50.3533 122.516 50.64C122.109 50.92 121.553 51.06 120.846 51.06ZM124.836 45.7H125.796V51H124.836V45.7ZM125.316 44.68C125.129 44.68 124.972 44.62 124.846 44.5C124.726 44.38 124.666 44.2333 124.666 44.06C124.666 43.8867 124.726 43.74 124.846 43.62C124.972 43.4933 125.129 43.43 125.316 43.43C125.502 43.43 125.656 43.49 125.776 43.61C125.902 43.7233 125.966 43.8667 125.966 44.04C125.966 44.22 125.902 44.3733 125.776 44.5C125.656 44.62 125.502 44.68 125.316 44.68ZM130.959 45.65C131.632 45.65 132.165 45.8467 132.559 46.24C132.959 46.6267 133.159 47.1967 133.159 47.95V51H132.199V48.06C132.199 47.5467 132.075 47.16 131.829 46.9C131.582 46.64 131.229 46.51 130.769 46.51C130.249 46.51 129.839 46.6633 129.539 46.97C129.239 47.27 129.089 47.7033 129.089 48.27V51H128.129V45.7H129.049V46.5C129.242 46.2267 129.502 46.0167 129.829 45.87C130.162 45.7233 130.539 45.65 130.959 45.65ZM137.775 51.06C137.235 51.06 136.751 50.9433 136.325 50.71C135.905 50.4767 135.575 50.1567 135.335 49.75C135.095 49.3367 134.975 48.87 134.975 48.35C134.975 47.83 135.095 47.3667 135.335 46.96C135.575 46.5467 135.905 46.2267 136.325 46C136.751 45.7667 137.235 45.65 137.775 45.65C138.255 45.65 138.681 45.7467 139.055 45.94C139.435 46.1333 139.728 46.4133 139.935 46.78L139.205 47.25C139.038 46.9967 138.831 46.8067 138.585 46.68C138.338 46.5533 138.065 46.49 137.765 46.49C137.418 46.49 137.105 46.5667 136.825 46.72C136.551 46.8733 136.335 47.0933 136.175 47.38C136.021 47.66 135.945 47.9833 135.945 48.35C135.945 48.7233 136.021 49.0533 136.175 49.34C136.335 49.62 136.551 49.8367 136.825 49.99C137.105 50.1433 137.418 50.22 137.765 50.22C138.065 50.22 138.338 50.1567 138.585 50.03C138.831 49.9033 139.038 49.7133 139.205 49.46L139.935 49.92C139.728 50.2867 139.435 50.57 139.055 50.77C138.681 50.9633 138.255 51.06 137.775 51.06ZM146.389 48.38C146.389 48.4533 146.383 48.55 146.369 48.67H142.069C142.129 49.1367 142.333 49.5133 142.679 49.8C143.033 50.08 143.469 50.22 143.989 50.22C144.623 50.22 145.133 50.0067 145.519 49.58L146.049 50.2C145.809 50.48 145.509 50.6933 145.149 50.84C144.796 50.9867 144.399 51.06 143.959 51.06C143.399 51.06 142.903 50.9467 142.469 50.72C142.036 50.4867 141.699 50.1633 141.459 49.75C141.226 49.3367 141.109 48.87 141.109 48.35C141.109 47.8367 141.223 47.3733 141.449 46.96C141.683 46.5467 141.999 46.2267 142.399 46C142.806 45.7667 143.263 45.65 143.769 45.65C144.276 45.65 144.726 45.7667 145.119 46C145.519 46.2267 145.829 46.5467 146.049 46.96C146.276 47.3733 146.389 47.8467 146.389 48.38ZM143.769 46.46C143.309 46.46 142.923 46.6 142.609 46.88C142.303 47.16 142.123 47.5267 142.069 47.98H145.469C145.416 47.5333 145.233 47.17 144.919 46.89C144.613 46.6033 144.229 46.46 143.769 46.46ZM153.148 44V51H152.158V44.87H150.578V44H153.148ZM157.449 43.92C158.389 43.92 159.113 44.2233 159.619 44.83C160.133 45.4367 160.389 46.2967 160.389 47.41C160.389 48.19 160.249 48.8567 159.969 49.41C159.696 49.9567 159.309 50.3733 158.809 50.66C158.316 50.94 157.739 51.08 157.079 51.08C156.739 51.08 156.419 51.0467 156.119 50.98C155.819 50.9067 155.559 50.8033 155.339 50.67L155.719 49.89C156.059 50.11 156.509 50.22 157.069 50.22C157.796 50.22 158.363 49.9967 158.769 49.55C159.183 49.0967 159.389 48.44 159.389 47.58V47.33C159.189 47.63 158.913 47.86 158.559 48.02C158.206 48.1733 157.809 48.25 157.369 48.25C156.909 48.25 156.496 48.1633 156.129 47.99C155.769 47.8167 155.486 47.57 155.279 47.25C155.079 46.9233 154.979 46.55 154.979 46.13C154.979 45.69 155.086 45.3033 155.299 44.97C155.519 44.6367 155.816 44.38 156.189 44.2C156.563 44.0133 156.983 43.92 157.449 43.92ZM157.539 47.44C157.853 47.44 158.133 47.38 158.379 47.26C158.626 47.14 158.816 46.9767 158.949 46.77C159.089 46.5633 159.159 46.3333 159.159 46.08C159.159 45.8333 159.093 45.61 158.959 45.41C158.833 45.2033 158.643 45.04 158.389 44.92C158.143 44.7933 157.843 44.73 157.489 44.73C157.029 44.73 156.656 44.8533 156.369 45.1C156.089 45.3467 155.949 45.6767 155.949 46.09C155.949 46.5033 156.093 46.8333 156.379 47.08C156.666 47.32 157.053 47.44 157.539 47.44ZM164.121 43.92C165.061 43.92 165.784 44.2233 166.291 44.83C166.804 45.4367 167.061 46.2967 167.061 47.41C167.061 48.19 166.921 48.8567 166.641 49.41C166.368 49.9567 165.981 50.3733 165.481 50.66C164.988 50.94 164.411 51.08 163.751 51.08C163.411 51.08 163.091 51.0467 162.791 50.98C162.491 50.9067 162.231 50.8033 162.011 50.67L162.391 49.89C162.731 50.11 163.181 50.22 163.741 50.22C164.468 50.22 165.034 49.9967 165.441 49.55C165.854 49.0967 166.061 48.44 166.061 47.58V47.33C165.861 47.63 165.584 47.86 165.231 48.02C164.878 48.1733 164.481 48.25 164.041 48.25C163.581 48.25 163.168 48.1633 162.801 47.99C162.441 47.8167 162.158 47.57 161.951 47.25C161.751 46.9233 161.651 46.55 161.651 46.13C161.651 45.69 161.758 45.3033 161.971 44.97C162.191 44.6367 162.488 44.38 162.861 44.2C163.234 44.0133 163.654 43.92 164.121 43.92ZM164.211 47.44C164.524 47.44 164.804 47.38 165.051 47.26C165.298 47.14 165.488 46.9767 165.621 46.77C165.761 46.5633 165.831 46.3333 165.831 46.08C165.831 45.8333 165.764 45.61 165.631 45.41C165.504 45.2033 165.314 45.04 165.061 44.92C164.814 44.7933 164.514 44.73 164.161 44.73C163.701 44.73 163.328 44.8533 163.041 45.1C162.761 45.3467 162.621 45.6767 162.621 46.09C162.621 46.5033 162.764 46.8333 163.051 47.08C163.338 47.32 163.724 47.44 164.211 47.44ZM171.383 51.08C170.83 51.08 170.336 50.94 169.903 50.66C169.476 50.3733 169.14 49.96 168.893 49.42C168.646 48.88 168.523 48.24 168.523 47.5C168.523 46.76 168.646 46.12 168.893 45.58C169.14 45.04 169.476 44.63 169.903 44.35C170.336 44.0633 170.83 43.92 171.383 43.92C171.93 43.92 172.416 44.0633 172.843 44.35C173.276 44.63 173.616 45.04 173.863 45.58C174.11 46.12 174.233 46.76 174.233 47.5C174.233 48.24 174.11 48.88 173.863 49.42C173.616 49.96 173.276 50.3733 172.843 50.66C172.416 50.94 171.93 51.08 171.383 51.08ZM171.383 50.19C171.943 50.19 172.39 49.96 172.723 49.5C173.063 49.04 173.233 48.3733 173.233 47.5C173.233 46.6267 173.063 45.96 172.723 45.5C172.39 45.04 171.943 44.81 171.383 44.81C170.816 44.81 170.363 45.04 170.023 45.5C169.69 45.96 169.523 46.6267 169.523 47.5C169.523 48.3733 169.69 49.04 170.023 49.5C170.363 49.96 170.816 50.19 171.383 50.19Z" fill="#202020"/>
<rect x="1" y="34" width="59" height="4" fill="#05FF00"/>
<rect x="60" y="34" width="59" height="4" fill="white"/>
<rect x="119" y="34" width="59" height="4" fill="#FF0000"/>
</svg>
